<svg width="256" height="256" xmlns="http://www.w3.org/2000/svg">
 <!-- SVG created with Arrow, by QuiverAI (https://quiver.ai) -->

 <g>
  <title>Layer 1</title>
  <path id="svg_1" fill="#0A2D57" d="m180.9,103.1l-8.71,17.44l3.94,9.72c4.39,-2.32 8.95,-6.29 10.76,-7.99l-5.86,-19.17l-0.13,0z"/>
  <path id="svg_2" fill="#0A2D57" d="m215.2,126.8c-3.23,4.08 -6.57,8 -9.69,11l18.04,50.02l-13.62,0l-14.52,-41.81c-4.42,3.66 -7.12,5.56 -10.64,7.16l15.72,47.63l42.07,0l-27.36,-74z"/>
  <path id="svg_3" fill="#0A2D57" d="m250,58.83l-40.24,19.48l13.37,6c-13.17,20.53 -34.62,53.11 -58.42,54.5l-7.23,12.97c2.73,0.77 4.67,0.83 7.13,0.62c23.28,-1.97 39.08,-17.91 56.21,-41.48l15.47,-18.11l10.3,10.27l3.41,-44.25z"/>
  <path id="svg_4" fill="#0A2D57" d="m197.1,71.43c-6.4,-12.24 -15.78,-18.44 -26,-17.73c-17,1.27 -25.39,15.04 -34.02,36.29l-12.98,30.27c-3.33,7.23 -6.19,11.65 -10.38,11.45c-3.85,-0.18 -5.89,-2.55 -8.25,-7.53l-15.37,-35.69c-4.49,-8.18 -10.02,-12.72 -19.4,-12.38c-9.89,0.71 -15.28,8.47 -19.59,16.58l-39,61.5c-4.98,8.18 -6.69,16.12 -5.73,22.52c2.22,13.11 11.67,23.07 26.97,24.34c11.52,0.14 20.76,-6.95 26.69,-17.49c10.33,-18.8 17.14,-36.75 23.82,-62.71l-8.11,-18.46l-10.4,31.53c-6.33,17.17 -10.65,28.79 -18.45,44.39c-4.15,7.09 -8.47,10.16 -13.65,9.41c-9.1,-1.03 -13.25,-7.88 -13.25,-13.68c0,-5.11 2.93,-10.19 7.11,-16.33l31.04,-48.67l8.39,-15.16c1.77,-3.82 3.41,-4.85 5.7,-4.92c3.99,-0.14 5.49,2.97 7.64,7.22l17.3,40.73c7.73,18.73 17.92,29.13 30.19,28.92c14.95,0.21 24.33,-11.01 32.06,-29.37l18.17,-41.55c2.15,-5.05 4.75,-6.09 7.61,-5.95c2.79,0.07 4.63,2.32 5.93,6.16l5.39,16.21l9.58,-12.7l-9.01,-27.2zm-28.29,-3.92c6.33,-2.1 11.65,1.3 15.57,7.84c-8.97,0.89 -14.36,6.56 -18.75,16.86l-14.38,33.7c-7.52,17.95 -14.47,26.95 -22.99,26.95c-5.86,0 -10.21,-3.25 -12.94,-7.81c10.6,0.27 17.48,-10.41 23.95,-26.42l12.63,-29.53c5.6,-12.07 10.12,-19.37 16.91,-21.59z"/>
  <path id="svg_5" fill="#0A2D57" d="m75.41,55.73c-9.89,3.31 -14.38,10.79 -17.24,18.9c4.78,-3.78 9.03,-5.75 16.96,-4.89c3.78,-1.68 4.88,-3.01 8.73,-3.08c7.8,0.07 13.05,6.47 18.98,20.38l15.29,35.27l6.85,-16.08l-8.87,-21.65c-8.39,-19.17 -18.99,-31.1 -32.87,-30.88l-7.83,2.03z"/>
 </g>
</svg>